<svg width="100" height="100" viewBox="0 0 100 100" fill="none" xmlns="http://www.w3.org/2000/svg">
<path fill-rule="evenodd" clip-rule="evenodd" d="M42.7706 37.8736C42.7706 33.2763 46.4974 29.5495 51.0947 29.5495V24C43.4325 24 37.2211 30.2114 37.2211 37.8736V48.9725H42.7706V37.8736Z" fill="#FFBB5D"/>
<path fill-rule="evenodd" clip-rule="evenodd" d="M63.8584 36.7637C63.8584 29.7145 58.1439 24 51.0947 24V29.5495C55.079 29.5495 58.3089 32.7794 58.3089 36.7637V40.6484C58.3089 42.1808 59.5512 43.4231 61.0837 43.4231C62.6161 43.4231 63.8584 42.1808 63.8584 40.6484V36.7637Z" fill="#FFBB5D"/>
<path d="M31.0728 49.2354C31.0728 48.6224 31.5697 48.1255 32.1826 48.1255H68.8966C69.5096 48.1255 70.0065 48.6224 70.0065 49.2354V73.3901C70.0065 74.0031 69.5096 74.5 68.8966 74.5H32.1826C31.5697 74.5 31.0728 74.0031 31.0728 73.3901V49.2354Z" fill="url(#paint0_linear_78_860)"/>
<defs>
<linearGradient id="paint0_linear_78_860" x1="50.5396" y1="48.1255" x2="64.3174" y2="68.464" gradientUnits="userSpaceOnUse">
<stop stop-color="#FFBB5D"/>
<stop offset="1" stop-color="#FFE55D"/>
</linearGradient>
</defs>
</svg>
