<svg width="100" height="100" viewBox="0 0 100 100" fill="none" xmlns="http://www.w3.org/2000/svg">
<path fill-rule="evenodd" clip-rule="evenodd" d="M27.4675 36.4997C27.8773 36.4997 28.204 36.1595 28.204 35.7497V34.2497C28.204 23.066 37.2702 13.9998 48.454 13.9998C57.0216 13.9998 64.3464 19.3205 67.3046 26.8378C67.4597 27.2322 67.8353 27.5005 68.2591 27.5005H69.8495C78.5479 27.5005 85.5994 34.552 85.5994 43.2504C85.5994 51.9489 78.5479 59.0004 69.8495 59.0004H57.8495C57.7983 59.0004 57.7471 59.0002 57.696 58.9997L25.7177 58.9997C19.5045 58.9997 14.4678 53.9629 14.4678 47.7497C14.4678 41.5365 19.5046 36.4997 25.7177 36.4997H27.4675Z" fill="url(#paint0_linear_78_864)"/>
<path d="M58.1036 58.9984H41.2627C40.7568 58.9984 40.3306 58.6206 40.2699 58.1183L39.8916 54.986C39.3031 50.1128 39.6165 45.173 40.8162 40.4133L41.1839 38.9546C42.4662 33.8669 44.737 29.0812 47.8669 24.8701L49.1986 23.0783C49.5985 22.5403 50.404 22.5403 50.8038 23.0783L52.1356 24.8701C55.2654 29.0812 57.5362 33.8669 58.8186 38.9545L58.8861 39.2222C60.2801 44.7526 60.4752 50.5172 59.4585 56.1292L59.0876 58.1767C59.0014 58.6525 58.5871 58.9984 58.1036 58.9984Z" fill="url(#paint1_linear_78_864)"/>
<path fill-rule="evenodd" clip-rule="evenodd" d="M33 72.5C40.4558 72.5 46.5 66.4558 46.5 59H51.5C51.5 69.2173 43.2173 77.5 33 77.5H16V72.5H33Z" fill="url(#paint2_linear_78_864)"/>
<path fill-rule="evenodd" clip-rule="evenodd" d="M67 72.5C59.5442 72.5 53.5 66.4558 53.5 59H48.5C48.5 69.2173 56.7827 77.5 67 77.5H83V72.5H67Z" fill="url(#paint3_linear_78_864)"/>
<path fill-rule="evenodd" clip-rule="evenodd" d="M52.5 59L52.5 86L47.5 86L47.5 59L52.5 59Z" fill="url(#paint4_linear_78_864)"/>
<defs>
<linearGradient id="paint0_linear_78_864" x1="30" y1="29" x2="74.9126" y2="21.6751" gradientUnits="userSpaceOnUse">
<stop stop-color="#7ACFFF" stop-opacity="0.3"/>
<stop offset="1" stop-color="#3FB5FF" stop-opacity="0.34"/>
</linearGradient>
<linearGradient id="paint1_linear_78_864" x1="50.0015" y1="21.9985" x2="50.0015" y2="58.9985" gradientUnits="userSpaceOnUse">
<stop stop-color="#3BC6FD"/>
<stop offset="1" stop-color="#3EB0FD"/>
</linearGradient>
<linearGradient id="paint2_linear_78_864" x1="46.5373" y1="73.8837" x2="25.8507" y2="73.8837" gradientUnits="userSpaceOnUse">
<stop stop-color="#3FB1FE"/>
<stop offset="1" stop-color="#24A9FD" stop-opacity="0"/>
</linearGradient>
<linearGradient id="paint3_linear_78_864" x1="52.9104" y1="73.8837" x2="73.9254" y2="73.8837" gradientUnits="userSpaceOnUse">
<stop stop-color="#3EB1FE"/>
<stop offset="1" stop-color="#24A9FD" stop-opacity="0"/>
</linearGradient>
<linearGradient id="paint4_linear_78_864" x1="50" y1="70.7818" x2="50" y2="82.986" gradientUnits="userSpaceOnUse">
<stop stop-color="#3FB1FE"/>
<stop offset="1" stop-color="#24A9FD" stop-opacity="0"/>
</linearGradient>
</defs>
</svg>
