<svg width="100" height="100" viewBox="0 0 100 100" fill="none" xmlns="http://www.w3.org/2000/svg">
<path d="M74 36.2021L55.973 18L29 18C28.4477 18 28 18.4477 28 19L28 81C28 81.5523 28.4477 82 29 82L73 82C73.5523 82 74 81.5523 74 81L74 36.2021Z" fill="url(#paint0_linear_78_859)"/>
<path d="M74 36L56 18L56 35C56 35.5523 56.4477 36 57 36L74 36Z" fill="url(#paint1_linear_78_859)"/>
<path fill-rule="evenodd" clip-rule="evenodd" d="M30.4999 31.4839L46.7579 47.5637L43.2419 51.1187L32.9999 40.9889V79.0001H27.9999V40.9889L17.7579 51.1187L14.2419 47.5637L30.4999 31.4839Z" fill="url(#paint2_linear_78_859)"/>
<defs>
<linearGradient id="paint0_linear_78_859" x1="15.5676" y1="18" x2="74.7106" y2="94.0216" gradientUnits="userSpaceOnUse">
<stop stop-color="#2BB1FD" stop-opacity="0.18"/>
<stop offset="1" stop-color="#2BACFD" stop-opacity="0.22"/>
</linearGradient>
<linearGradient id="paint1_linear_78_859" x1="74" y1="18" x2="63.3601" y2="39.6218" gradientUnits="userSpaceOnUse">
<stop stop-color="#2BB1FD" stop-opacity="0.43"/>
<stop offset="1" stop-color="#2BACFD" stop-opacity="0.32"/>
</linearGradient>
<linearGradient id="paint2_linear_78_859" x1="30.4999" y1="35.0001" x2="30.4999" y2="75.5001" gradientUnits="userSpaceOnUse">
<stop stop-color="#24A9FD"/>
<stop offset="1" stop-color="#24A9FD" stop-opacity="0"/>
</linearGradient>
</defs>
</svg>
