<svg width="100" height="100" viewBox="0 0 100 100" fill="none" xmlns="http://www.w3.org/2000/svg">
<path d="M63.7751 25.9051C60.8899 25.898 58.0624 26.7124 55.6231 28.253C53.1837 29.7936 51.2334 31.9969 50 34.6051C48.5454 31.4433 46.0494 28.8767 42.9295 27.3343C39.8096 25.7919 36.2548 25.3672 32.8593 26.1312C29.4639 26.8951 26.4335 28.8015 24.2749 31.5316C22.1163 34.2617 20.9603 37.65 21 41.1301C21 57.0801 50 78.1051 50 78.1051C50 78.1051 79.0001 57.0801 79.0001 41.1301C79.0001 37.0922 77.396 33.2196 74.5408 30.3644C71.6855 27.5091 67.813 25.9051 63.7751 25.9051Z" fill="url(#paint0_linear_78_863)"/>
<path fill-rule="evenodd" clip-rule="evenodd" d="M54.9548 39.1375L60.0197 48.3402H68.2595C69.4459 48.3402 70.4077 49.3019 70.4077 50.4883C70.4077 51.6747 69.4459 52.6365 68.2595 52.6365H57.4802L55.9389 49.8359L50.6684 65.7573L45.5807 53.1512L42.9765 59.079L37.286 52.6365H24.7595C23.5731 52.6365 22.6113 51.6747 22.6113 50.4883C22.6113 49.3019 23.5731 48.3402 24.7595 48.3402H39.2234L41.7467 51.1969L45.7486 42.0876L50.2698 53.2902L54.9548 39.1375Z" fill="url(#paint1_linear_78_863)"/>
<defs>
<linearGradient id="paint0_linear_78_863" x1="33.889" y1="26.2273" x2="69.3335" y2="72.4125" gradientUnits="userSpaceOnUse">
<stop stop-color="#FF7B73"/>
<stop offset="0.963542" stop-color="#DF1313"/>
</linearGradient>
<linearGradient id="paint1_linear_78_863" x1="41.4076" y1="44.4867" x2="25.2965" y2="44.4867" gradientUnits="userSpaceOnUse">
<stop stop-color="#FCFCFC"/>
<stop offset="1" stop-color="#FCFCFC" stop-opacity="0"/>
</linearGradient>
</defs>
</svg>
