<svg width="101" height="100" viewBox="0 0 101 100" fill="none" xmlns="http://www.w3.org/2000/svg">
<path fill-rule="evenodd" clip-rule="evenodd" d="M98 75L2 75L2 69L98 69C99.6569 69 101 70.3432 101 72C101 73.6569 99.6569 75 98 75Z" fill="url(#paint0_linear_78_862)"/>
<path d="M66 43C66 51.8366 58.8366 59 50 59C41.1634 59 34 51.8366 34 43C34 34.1634 41.1634 27 50 27C58.8366 27 66 34.1634 66 43Z" fill="url(#paint1_linear_78_862)"/>
<path d="M25 52C25 55.866 21.866 59 18 59C14.134 59 11 55.866 11 52C11 48.134 14.134 45 18 45C21.866 45 25 48.134 25 52Z" fill="#FDE1B9"/>
<path d="M91 52C91 55.866 87.866 59 84 59C80.134 59 77 55.866 77 52C77 48.134 80.134 45 84 45C87.866 45 91 48.134 91 52Z" fill="#FDE1B9"/>
<path d="M48.4511 65.0308L46.7544 67.9938C46.3981 68.616 45.7359 68.9999 45.0188 68.9999H55.3545C54.6375 68.9999 53.9753 68.616 53.6189 67.9938L51.9223 65.0308C51.154 63.6893 49.2193 63.6893 48.4511 65.0308Z" fill="#FFBB5D"/>
<path d="M16.4511 65.0308L14.7544 67.9938C14.3981 68.616 13.7359 68.9999 13.0188 68.9999H23.3545C22.6375 68.9999 21.9753 68.616 21.6189 67.9938L19.9223 65.0308C19.154 63.6893 17.2193 63.6893 16.4511 65.0308Z" fill="url(#paint2_linear_78_862)"/>
<path d="M85.5489 65.0308L87.2456 67.9938C87.6019 68.616 88.2641 68.9999 88.9812 68.9999H78.6455C79.3625 68.9999 80.0247 68.616 80.3811 67.9938L82.0777 65.0308C82.846 63.6893 84.7807 63.6893 85.5489 65.0308Z" fill="url(#paint3_linear_78_862)"/>
<defs>
<linearGradient id="paint0_linear_78_862" x1="5.55556" y1="72" x2="102.364" y2="72" gradientUnits="userSpaceOnUse">
<stop stop-color="#FFBC5E" stop-opacity="0"/>
<stop offset="0.338594" stop-color="#FFB650"/>
<stop offset="0.468967" stop-color="#FFB44A"/>
<stop offset="0.592422" stop-color="#FFB64F"/>
<stop offset="0.942708" stop-color="#FFBC5E" stop-opacity="0"/>
</linearGradient>
<linearGradient id="paint1_linear_78_862" x1="50" y1="27" x2="68.0003" y2="45.0003" gradientUnits="userSpaceOnUse">
<stop stop-color="#FFBB5D"/>
<stop offset="1" stop-color="#FFE55D"/>
</linearGradient>
<linearGradient id="paint2_linear_78_862" x1="22.6667" y1="67.9502" x2="7.94567" y2="67.2615" gradientUnits="userSpaceOnUse">
<stop stop-color="#FDE1B9"/>
<stop offset="1" stop-color="#FDE1B9" stop-opacity="0"/>
</linearGradient>
<linearGradient id="paint3_linear_78_862" x1="79.3333" y1="67.9502" x2="94.0543" y2="67.2615" gradientUnits="userSpaceOnUse">
<stop stop-color="#FDE1B9"/>
<stop offset="1" stop-color="#FDE1B9" stop-opacity="0"/>
</linearGradient>
</defs>
</svg>
