<svg width="284" height="213" viewBox="0 0 284 213" fill="none" xmlns="http://www.w3.org/2000/svg">
<g filter="url(#filter0_d_87_1440)">
<path fill-rule="evenodd" clip-rule="evenodd" d="M75.26 173C67.5513 173 63.697 173 60.7423 171.524C58.0303 170.169 55.8315 167.97 54.4764 165.258C53 162.303 53 158.449 53 150.74L53 42.2599C53 34.5513 53 30.6969 54.4764 27.7422C55.8315 25.0302 58.0303 22.8314 60.7423 21.4763C63.697 19.9999 67.5513 19.9999 75.26 19.9999L207.74 20C215.449 20 219.303 20 222.258 21.4764C224.97 22.8315 227.169 25.0303 228.524 27.7423C230 30.697 230 34.5513 230 42.26L230 150.74C230 158.449 230 162.303 228.524 165.258C227.169 167.97 224.97 170.169 222.258 171.524C219.303 173 215.449 173 207.74 173L75.26 173Z" fill="#C7D3E5"/>
</g>
<path fill-rule="evenodd" clip-rule="evenodd" d="M136 195L136 172L146 172L146 195L136 195Z" fill="#C7D3E6"/>
<path fill-rule="evenodd" clip-rule="evenodd" d="M60 185L222 185L222 195L60 195L60 185Z" fill="url(#paint0_linear_87_1440)"/>
<g filter="url(#filter1_d_87_1440)">
<path d="M60.0005 137.31C60.0005 132.354 60.0005 129.877 60.9496 127.977C61.8207 126.234 63.2343 124.82 64.9777 123.949C66.8771 123 69.3549 123 74.3105 123H207.69C212.646 123 215.124 123 217.023 123.949C218.767 124.82 220.18 126.234 221.051 127.977C222 129.877 222 132.354 222 137.31V150.166C222 155.122 222 157.599 221.051 159.499C220.18 161.242 218.767 162.656 217.023 163.527C215.124 164.476 212.646 164.476 207.69 164.476H74.3105C69.3549 164.476 66.8771 164.476 64.9777 163.527C63.2343 162.656 61.8207 161.242 60.9496 159.499C60.0005 157.599 60.0005 155.122 60.0005 150.166V137.31Z" fill="white"/>
</g>
<rect width="11.0454" height="11.0059" rx="5.50295" transform="matrix(-1 0 0 1 86.3525 139)" fill="url(#paint1_linear_87_1440)"/>
<g filter="url(#filter2_d_87_1440)">
<path d="M60.0005 90.31C60.0005 85.3544 60.0005 82.8766 60.9496 80.9772C61.8207 79.2338 63.2343 77.8202 64.9777 76.9491C66.8771 76 69.3549 76 74.3105 76H207.69C212.646 76 215.124 76 217.023 76.9491C218.767 77.8202 220.18 79.2338 221.051 80.9772C222 82.8766 222 85.3544 222 90.31V102.045C222 107.001 222 109.478 221.051 111.378C220.18 113.121 218.767 114.535 217.023 115.406C215.124 116.355 212.646 116.355 207.69 116.355H74.3105C69.3549 116.355 66.8771 116.355 64.9777 115.406C63.2343 114.535 61.8207 113.121 60.9496 111.378C60.0005 109.478 60.0005 107.001 60.0005 102.045V90.31Z" fill="white"/>
</g>
<rect width="11.0454" height="11.0059" rx="5.50295" transform="matrix(-1 0 0 1 86.3525 90)" fill="url(#paint2_linear_87_1440)"/>
<g filter="url(#filter3_d_87_1440)">
<path d="M60.0005 41.31C60.0005 36.3544 60.0005 33.8766 60.9496 31.9772C61.8207 30.2338 63.2343 28.8202 64.9777 27.9491C66.8771 27 69.3549 27 74.3105 27H207.69C212.646 27 215.124 27 217.023 27.9491C218.767 28.8202 220.18 30.2338 221.051 31.9772C222 33.8766 222 36.3544 222 41.31V54.166C222 59.1216 222 61.5994 221.051 63.4988C220.18 65.2422 218.767 66.6558 217.023 67.5269C215.124 68.476 212.646 68.476 207.69 68.476H74.3105C69.3549 68.476 66.8771 68.476 64.9777 67.5269C63.2343 66.6558 61.8207 65.2422 60.9496 63.4988C60.0005 61.5994 60.0005 59.1216 60.0005 54.166V41.31Z" fill="white"/>
</g>
<rect x="100" y="142" width="107" height="5" rx="2.5" fill="#C6D1E3"/>
<rect x="100" y="93" width="107" height="5" rx="2.5" fill="#C6D1E3"/>
<rect x="100" y="45" width="107" height="5" rx="2.5" fill="#C6D1E3"/>
<rect width="11.0454" height="11.0059" rx="5.50295" transform="matrix(-1 0 0 1 86.3525 42)" fill="url(#paint3_linear_87_1440)"/>
<defs>
<filter id="filter0_d_87_1440" x="23" y="0" width="237" height="213" filterUnits="userSpaceOnUse" color-interpolation-filters="sRGB">
<feFlood flood-opacity="0" result="BackgroundImageFix"/>
<feColorMatrix in="SourceAlpha" type="matrix" values="0 0 0 0 0 0 0 0 0 0 0 0 0 0 0 0 0 0 127 0" result="hardAlpha"/>
<feOffset dy="10"/>
<feGaussianBlur stdDeviation="15"/>
<feComposite in2="hardAlpha" operator="out"/>
<feColorMatrix type="matrix" values="0 0 0 0 0 0 0 0 0 0 0 0 0 0 0 0 0 0 0.03 0"/>
<feBlend mode="normal" in2="BackgroundImageFix" result="effect1_dropShadow_87_1440"/>
<feBlend mode="normal" in="SourceGraphic" in2="effect1_dropShadow_87_1440" result="shape"/>
</filter>
<filter id="filter1_d_87_1440" x="50.0005" y="118" width="182" height="61.4761" filterUnits="userSpaceOnUse" color-interpolation-filters="sRGB">
<feFlood flood-opacity="0" result="BackgroundImageFix"/>
<feColorMatrix in="SourceAlpha" type="matrix" values="0 0 0 0 0 0 0 0 0 0 0 0 0 0 0 0 0 0 127 0" result="hardAlpha"/>
<feOffset dy="5"/>
<feGaussianBlur stdDeviation="5"/>
<feComposite in2="hardAlpha" operator="out"/>
<feColorMatrix type="matrix" values="0 0 0 0 0 0 0 0 0 0 0 0 0 0 0 0 0 0 0.05 0"/>
<feBlend mode="normal" in2="BackgroundImageFix" result="effect1_dropShadow_87_1440"/>
<feBlend mode="normal" in="SourceGraphic" in2="effect1_dropShadow_87_1440" result="shape"/>
</filter>
<filter id="filter2_d_87_1440" x="50.0005" y="71" width="182" height="60.355" filterUnits="userSpaceOnUse" color-interpolation-filters="sRGB">
<feFlood flood-opacity="0" result="BackgroundImageFix"/>
<feColorMatrix in="SourceAlpha" type="matrix" values="0 0 0 0 0 0 0 0 0 0 0 0 0 0 0 0 0 0 127 0" result="hardAlpha"/>
<feOffset dy="5"/>
<feGaussianBlur stdDeviation="5"/>
<feComposite in2="hardAlpha" operator="out"/>
<feColorMatrix type="matrix" values="0 0 0 0 0 0 0 0 0 0 0 0 0 0 0 0 0 0 0.05 0"/>
<feBlend mode="normal" in2="BackgroundImageFix" result="effect1_dropShadow_87_1440"/>
<feBlend mode="normal" in="SourceGraphic" in2="effect1_dropShadow_87_1440" result="shape"/>
</filter>
<filter id="filter3_d_87_1440" x="50.0005" y="22" width="182" height="61.4761" filterUnits="userSpaceOnUse" color-interpolation-filters="sRGB">
<feFlood flood-opacity="0" result="BackgroundImageFix"/>
<feColorMatrix in="SourceAlpha" type="matrix" values="0 0 0 0 0 0 0 0 0 0 0 0 0 0 0 0 0 0 127 0" result="hardAlpha"/>
<feOffset dy="5"/>
<feGaussianBlur stdDeviation="5"/>
<feComposite in2="hardAlpha" operator="out"/>
<feColorMatrix type="matrix" values="0 0 0 0 0 0 0 0 0 0 0 0 0 0 0 0 0 0 0.05 0"/>
<feBlend mode="normal" in2="BackgroundImageFix" result="effect1_dropShadow_87_1440"/>
<feBlend mode="normal" in="SourceGraphic" in2="effect1_dropShadow_87_1440" result="shape"/>
</filter>
<linearGradient id="paint0_linear_87_1440" x1="222" y1="185" x2="60" y2="185" gradientUnits="userSpaceOnUse">
<stop stop-color="#D4DEEE" stop-opacity="0"/>
<stop offset="0.0001" stop-color="#C7D3E5" stop-opacity="0.01"/>
<stop offset="0.380208" stop-color="#C7D3E5"/>
<stop offset="0.552083" stop-color="#C7D3E5"/>
<stop offset="0.71875" stop-color="#C7D3E5"/>
<stop offset="1" stop-color="#C7D3E5" stop-opacity="0"/>
</linearGradient>
<linearGradient id="paint1_linear_87_1440" x1="0.505576" y1="0.491443" x2="12.9053" y2="4.41993" gradientUnits="userSpaceOnUse">
<stop stop-color="#010A1C"/>
<stop offset="1" stop-color="#0052B1"/>
</linearGradient>
<linearGradient id="paint2_linear_87_1440" x1="-8.14746" y1="-8.7273" x2="14.8779" y2="-0.72461" gradientUnits="userSpaceOnUse">
<stop stop-color="#010A1C"/>
<stop offset="1" stop-color="#0052B1"/>
</linearGradient>
<linearGradient id="paint3_linear_87_1440" x1="-9.14746" y1="-9.7273" x2="15.0802" y2="-1.30673" gradientUnits="userSpaceOnUse">
<stop stop-color="#010A1C"/>
<stop offset="1" stop-color="#0052B1"/>
</linearGradient>
</defs>
</svg>
